<?xml version="1.0" encoding="utf-8"?>
<!-- Generator: Adobe Illustrator 16.0.0, SVG Export Plug-In . SVG Version: 6.00 Build 0)  -->
<!DOCTYPE svg PUBLIC "-//W3C//DTD SVG 1.1//EN" "http://www.w3.org/Graphics/SVG/1.1/DTD/svg11.dtd">
<svg version="1.1" id="레이어_2" xmlns="http://www.w3.org/2000/svg" xmlns:xlink="http://www.w3.org/1999/xlink" x="0px"
	 y="0px" width="64px" height="64px" viewBox="0 0 640 640" enable-background="new 0 0 640 640" xml:space="preserve">
<g>
	<path fill="#348BCC" d="M277.659,453.157l-77.806-172.089h-31.774L245.681,455.7c-9.974,0.688-15.6,0.964-15.6,0.964
		L128.904,228.39L26.055,322.877c0,0,65.817,132.916,87.798,158.036c47.251,40.952,137.313,38.886,185.946,25.353
		c60.184-16.747,153.261-59.08,270.107-17.077c10.697-21.383,38.341-76.445,44.039-114.751
		C524.703,425.443,359.015,445.904,277.659,453.157z"/>
	<path fill="#348BCC" d="M112.366,485.776c25.284,48.472,68.738,63.368,88.153,69.984c39.849,13.579,130.224,4.142,194.117-10.058
		c54.986-12.22,116.946,11.028,130.324,19.39c0,0,24.142-35.646,33.688-53.211c-80.78-40.354-176.506-10.808-247.534,6.75
		C220.13,541.121,141.633,515.053,112.366,485.776z"/>
	<g>
		<polygon fill="#348BCC" points="429.297,99.588 412.079,74.907 393.712,99.585 393.712,106 429.297,106 		"/>
		<path fill="#348BCC" d="M429.297,337.262v-18.077h100.05L429.297,119.63V118h-35.585v219.262H243.423
			c0,0,39.481,90.28,45.047,101.443c90.413-9.849,167.645-21.304,227.213-41.924c25.506-14.686,75.988-59.52,75.988-59.52H429.297z"
			/>
	</g>
</g>
</svg>
